<?xml version="1.0" encoding="utf-8"?>
<svg version="1.1" id="safe-zone" class="safe-zone" xmlns="http://www.w3.org/2000/svg" xmlns:xlink="http://www.w3.org/1999/xlink" x="0px" y="0px"
	 viewBox="0 0 185.2 147.5" style="enable-background:new 0 0 185.2 147.5;" xml:space="preserve">
<style type="text/css">
	.st0{fill:#E34F00;}
	.st1{fill:#F79908;}
	.st2{fill:#00ABDC;}
	.st3{fill:#2D2D2D;}
	.st4{fill:#F2F2F2;}
	.st5{fill:#F9AE3B;}
	.st6{fill:#25C2EF;}
	.st7{filter:url(#Adobe_OpacityMaskFilter);}
	.st8{fill:#FFFFFF;}
	.st9{mask:url(#SVGID_1_);}
	.st10{fill:#B1B1B1;}
	.st11{filter:url(#Adobe_OpacityMaskFilter_1_);}
	.st12{mask:url(#SVGID_4_);}
	.st13{fill:#009045;}
	.st14{fill:#EF6000;}
	.st15{fill:#EB1C24;}
	.st16{fill:#662D8F;}
	.st17{opacity:0.7;fill:#281900;}
	.st18{opacity:0.6;fill:#2D2D2D;}
	.st19{fill:#F9C23B;}
	.st20{fill:#4A4A4A;}
	.st21{fill:url(#);}
	.st22{fill:#333333;}
	.st23{fill:#FFC700;}
	.st24{fill:#F5911E;}
	.st25{fill:#EEEEEE;}
	.st26{fill:#0C7FF3;}
	.st27{fill:#FF9900;}
	.st28{fill:#0066CB;}
	.st29{fill:#FF6600;}
	.st30{opacity:0.6;}
	.st31{fill:#424242;}
	.st32{fill:#EF5A24;}
	.st33{opacity:0.6;fill:#662D8F;}
	.st34{opacity:0.6;fill:#00528E;}
	.st35{opacity:0.6;fill:#009045;}
	.st36{opacity:0.6;fill:#E1C428;}
	.st37{opacity:0.6;fill:#F5911E;}
	.st38{opacity:0.6;fill:#BF272D;}
	.st39{fill:#EA3228;}
	.st40{fill:#F3771F;}
	.st41{fill:#F8CA00;}
	.st42{fill:#2EA04A;}
	.st43{fill:#3E59A5;}
	.st44{fill:#6C5CA5;}
	.st45{opacity:0.7;fill:#FFFFFF;}
	.st46{fill:#F0F0F0;}
	.st47{fill:#979797;}
	.st48{fill:none;stroke:#979797;stroke-miterlimit:10;}
	.st49{fill:#862D7D;}
	.st50{opacity:0.25;}
	.st51{fill:#2E318E;}
	.st52{fill:#0071B8;}
	.st53{fill:#00A599;}
	.st54{fill:#008E45;}
	.st55{fill:#88C23F;}
	.st56{fill:#D5DC21;}
	.st57{fill:#F8EA21;}
	.st58{fill:#F7AC3B;}
	.st59{fill:#F38F1E;}
	.st60{fill:#ED5A24;}
	.st61{fill:#E91C24;}
	.st62{fill:#BD272D;}
	.st63{fill:#0000FF;}
	.st64{fill:#006837;}
	.st65{fill:#FAEC21;}
	.st66{fill:url(#SVGID_15_);}
	.st67{fill:#D2EFF1;}
</style>
<g>
	<g>
		<polygon class="st39" points="10.8,18.1 14.1,23.3 171.3,22.6 185.2,0.3 185.2,0 0,0.8 0,1.2 		"/>
		<polygon class="st40" points="31,49.8 154.6,49.2 171.3,22.6 14.1,23.3 		"/>
		<polygon class="st41" points="31,49.8 46.3,73.9 139.5,73.5 154.6,49.2 		"/>
		<polygon class="st42" points="46.3,73.9 61.7,98 124.3,97.7 139.5,73.5 		"/>
		<polygon class="st43" points="61.7,98 77,122 109.2,121.9 124.3,97.7 		"/>
		<polygon class="st44" points="109.2,121.9 77,122 93.2,147.5 		"/>
	</g>
	<g>
		<path class="st8" d="M121.1,23.1l-12.2,0.1l0,5l9.1,0l-10.2,10.3c-4.1-4-9.7-6.5-15.8-6.4c-5.4,0-10.3,2-14.2,5.1l-1.8-1.7l3-3
			l-3.6-3.6l-3,3.1l-4.5-4.4l8.7,0l0-5l-12.1,0.1l-4.7,0l0,4.9l0.1,12.4l4.5,0l0-9.1l4.7,4.5l-3,3.1l3.6,3.6l3.1-3.1l1.8,1.8
			c-3.1,3.9-5,8.8-4.9,14.1c0.1,11.6,9.2,21.1,20.1,22.3l0,6.9l-6.8,0l0,5.5l6.8,0l0,6.4l5,0l0-6.4l6.8,0l0-5.5l-6.8,0l0-6.9
			c11.4-1.3,20-10.9,19.9-22.5c0-4.5-1.4-8.8-3.7-12.3l10.4-10.5l0,8.8l4.5,0l-0.1-12.3l0-5L121.1,23.1z M92.1,72.3
			c-9.8,0-17.8-7.9-17.9-17.7c0-9.8,7.9-17.8,17.7-17.9c9.8,0,17.8,7.9,17.9,17.7C109.8,64.2,101.9,72.2,92.1,72.3z"/>
		
			<rect x="82.6" y="56.9" transform="matrix(1 -5.076987e-03 5.076987e-03 1 -0.3005 0.4677)" class="st8" width="18.6" height="5"/>
		
			<rect x="82.6" y="46.5" transform="matrix(1 -5.076987e-03 5.076987e-03 1 -0.2485 0.4673)" class="st8" width="18.6" height="5.5"/>
	</g>
</g>
</svg>
