<?xml version="1.0" encoding="utf-8"?>
<svg version="1.1" id="texas" class="texas" xmlns="http://www.w3.org/2000/svg" xmlns:xlink="http://www.w3.org/1999/xlink" x="0px" y="0px"
	 viewBox="0 0 166.1 181.2" style="enable-background:new 0 0 166.1 181.2;" xml:space="preserve">
<style type="text/css">
	.st0{fill:#E34F00;}
	.st1{fill:#F79908;}
	.st2{fill:#00ABDC;}
	.st3{fill:#2D2D2D;}
	.st4{fill:#F2F2F2;}
	.st5{fill:#F9AE3B;}
	.st6{fill:#25C2EF;}
	.st7{filter:url(#Adobe_OpacityMaskFilter);}
	.st8{fill:#FFFFFF;}
	.st9{mask:url(#SVGID_1_);}
	.st10{fill:#B1B1B1;}
	.st11{filter:url(#Adobe_OpacityMaskFilter_1_);}
	.st12{mask:url(#SVGID_4_);}
	.st13{fill:#009045;}
	.st14{fill:#EF6000;}
	.st15{fill:#EB1C24;}
	.st16{fill:#662D8F;}
	.st17{opacity:0.7;fill:#281900;}
	.st18{opacity:0.6;fill:#2D2D2D;}
	.st19{fill:#F9C23B;}
	.st20{fill:#4A4A4A;}
	.st21{fill:url(#);}
	.st22{fill:#333333;}
	.st23{fill:#FFC700;}
	.st24{fill:#F5911E;}
	.st25{fill:#EEEEEE;}
	.st26{fill:#0C7FF3;}
	.st27{fill:#FF9900;}
	.st28{fill:#0066CB;}
	.st29{fill:#FF6600;}
	.st30{opacity:0.6;}
	.st31{fill:#424242;}
	.st32{fill:#EF5A24;}
	.st33{opacity:0.6;fill:#662D8F;}
	.st34{opacity:0.6;fill:#00528E;}
	.st35{opacity:0.6;fill:#009045;}
	.st36{opacity:0.6;fill:#E1C428;}
	.st37{opacity:0.6;fill:#F5911E;}
	.st38{opacity:0.6;fill:#BF272D;}
	.st39{fill:#EA3228;}
	.st40{fill:#F3771F;}
	.st41{fill:#F8CA00;}
	.st42{fill:#2EA04A;}
	.st43{fill:#3E59A5;}
	.st44{fill:#6C5CA5;}
	.st45{opacity:0.7;fill:#FFFFFF;}
	.st46{fill:#F0F0F0;}
	.st47{fill:#979797;}
	.st48{fill:none;stroke:#979797;stroke-miterlimit:10;}
	.st49{fill:#862D7D;}
	.st50{opacity:0.25;}
	.st51{fill:#2E318E;}
	.st52{fill:#0071B8;}
	.st53{fill:#00A599;}
	.st54{fill:#008E45;}
	.st55{fill:#88C23F;}
	.st56{fill:#D5DC21;}
	.st57{fill:#F8EA21;}
	.st58{fill:#F7AC3B;}
	.st59{fill:#F38F1E;}
	.st60{fill:#ED5A24;}
	.st61{fill:#E91C24;}
	.st62{fill:#BD272D;}
	.st63{fill:#0000FF;}
	.st64{fill:#006837;}
	.st65{fill:#FAEC21;}
	.st66{fill:url(#SVGID_15_);}
	.st67{fill:#D2EFF1;}
</style>
<g>
	<path class="st24" d="M161.9,71.7c-2.7-5.2-4.8-10.7-3.9-16.9c0.1-0.7-0.3-1.4-0.4-2.1c0,0,0,0,0,0c0-0.9,0.1-1.9,0-2.8
		c-0.2-3.5,1.4-8.3-5.1-7.5c-0.1,0-0.2-0.2-0.3-0.2c-4.4-0.8-7.4-5.4-12.8-3.7c-2.3,0.7-5.4,0.3-7.7,1.5c-2,1-3.3,1.2-5.4,0.2
		c-2.4-1.1-5.4-3-6.9,1.1c-1.6,0.1-0.2-2.7-1.9-1.8c-2.6,1.5-5.2-3.3-7.7,0.2c-0.2,0.2-0.6-0.9-0.9-1.2c-1.4-1.2-2.5-3-4.8-2.8
		c-4.1,0.4-8.2,0.6-11-3.2c-0.8-1.1-1.7-0.4-2.6-0.4c-4.1,0.1-6.5-2-6.8-5.9c0.1-7.6,0-15.2,0.2-22.9c0.1-2.2-0.9-2.4-2.7-2.5
		c-2-0.1-4.2,0.9-6-0.7c-3.1,0-6.3,0-9.4,0c-2.7,1.2-5.5,0.2-8.2,0.5c-0.7,0.3-1.4,0.3-1.9-0.5c-2.6,0-5.3,0-7.9,0
		c0.1,8.7-1.1,17.3-0.7,26c-0.4,8.9-0.9,17.7-1.3,26.6c-0.1,3.7-0.3,7.4-0.3,11.1c0,1.8-0.4,2.8-2.6,2.7C28.5,66.1,14.2,65.4,0,64.2
		c0,0.7,0,1.4,0,2.2c1.2,0.9,2.9,1.6,3.5,2.8c2,4.3,6.2,6.4,9.3,9.6c0.4,2.1,2,3.3,3.7,4.1c4.5,1.9,6.4,6.3,6.6,9.9
		c0.2,6.4,4.1,9.4,8.3,12.6c2.2,1.1,4.4,2.1,6.4,3.4c4.8,3.1,6.9,2.3,8.6-3.4c0.6-1.2,1.2-2.3,1.7-3.5c1.2-2.9,4.8-3.6,6.3-3.2
		c2.6,0.6,5.2,0.8,7.7,1c2.1,0.2,3.7,0.5,4.6,2.4c0.8,1.6,2.6,2,3.7,3.2h0c1.8,2.1,4,3.6,5,6.7c2.2,6.8,6.8,12.4,10.8,18.2
		c0.7,0.9,1.7,1.4,2.8,1.5c1.1,0.8,1.2,2,1.5,3.1c1.5,6.7,2.3,13.9,10.1,16.5c3,1,5.5,3.7,8.8,3.4c3.5-0.2,6.2,0.7,8.4,3.3
		c0.2,0,0.5,0,0.7,0c-0.6-1.7,2.4-1.9,1.7-3.1c-2.2-3.3-2.4-7.3-3.8-10.8c-0.5-1.4-0.6-2.2-0.1-3.8c0.9-2.8,2.7-5.5,2.3-8.7
		c0-0.5,2.5-4,3.2-4.6c0.3-0.2,0.7-0.3,0.9-0.5c1.5-2.7,3.8-4.5,6.4-6c0.8-0.4,1.2-0.9,0.8-1.6c-1.5-2.6,1.6-2.9,2-2.7
		c4.2,1.6,6.7-2.1,10-3.1c3.6-1.2,4.2-5.7,7.3-7.7c0.8-0.9,0-1.6-0.5-2.2c-2.1-2.5,0.6-2.9,1.6-4.1c0.3-0.3,0.4-0.2,1.5,1.9
		c0.4,0.9,1.1,0.7,1.8,0.7c6,0.5,11.1-5.2,10.2-11.3c-0.5-3.1,0.2-5.9,2.3-8.3c0-1.2,0-2.4,0-3.6c0-0.2,0-0.5,0-0.7
		C163.5,76.7,163,73.8,161.9,71.7z"/>
	<g>
		<path class="st3" d="M136.5,181.2c-0.9,0-1.9-0.4-2.5-1.1l-9.6-9.5c-3.3,2.3-7.2,3.5-11.1,3.5c-10.9,0-19.6-8.8-19.6-19.6
			s8.8-19.6,19.6-19.6s19.6,8.8,19.6,19.6c0,4-1.2,7.9-3.5,11.1l9.6,9.6c0.6,0.6,1,1.6,1,2.5C140.1,179.6,138.5,181.2,136.5,181.2z
			 M113.3,141.9c-6.9,0-12.5,5.6-12.5,12.5s5.6,12.5,12.5,12.5s12.5-5.6,12.5-12.5S120.2,141.9,113.3,141.9z"/>
	</g>
</g>
</svg>
