<?xml version="1.0" encoding="utf-8"?>
<svg version="1.1" id="thumbs-up" class="thumbs-up" xmlns="http://www.w3.org/2000/svg" xmlns:xlink="http://www.w3.org/1999/xlink" x="0px" y="0px"
	 viewBox="0 0 128.6 139.3" style="enable-background:new 0 0 128.6 139.3;" xml:space="preserve">
<style type="text/css">
	.st0{fill:#E34F00;}
	.st1{fill:#F79908;}
	.st2{fill:#00ABDC;}
	.st3{fill:#2D2D2D;}
	.st4{fill:#F2F2F2;}
	.st5{fill:#F9AE3B;}
	.st6{fill:#25C2EF;}
	.st7{filter:url(#Adobe_OpacityMaskFilter);}
	.st8{fill:#FFFFFF;}
	.st9{mask:url(#SVGID_1_);}
	.st10{fill:#B1B1B1;}
	.st11{filter:url(#Adobe_OpacityMaskFilter_1_);}
	.st12{mask:url(#SVGID_4_);}
	.st13{fill:#009045;}
	.st14{fill:#EF6000;}
	.st15{fill:#EB1C24;}
	.st16{fill:#662D8F;}
	.st17{opacity:0.7;fill:#281900;}
	.st18{opacity:0.6;fill:#2D2D2D;}
	.st19{fill:#F9C23B;}
	.st20{fill:#4A4A4A;}
	.st21{fill:url(#);}
	.st22{fill:#333333;}
	.st23{fill:#FFC700;}
	.st24{fill:#F5911E;}
	.st25{fill:#EEEEEE;}
	.st26{fill:#0C7FF3;}
	.st27{fill:#FF9900;}
	.st28{fill:#0066CB;}
	.st29{fill:#FF6600;}
	.st30{opacity:0.6;}
	.st31{fill:#424242;}
	.st32{fill:#EF5A24;}
	.st33{opacity:0.6;fill:#662D8F;}
	.st34{opacity:0.6;fill:#00528E;}
	.st35{opacity:0.6;fill:#009045;}
	.st36{opacity:0.6;fill:#E1C428;}
	.st37{opacity:0.6;fill:#F5911E;}
	.st38{opacity:0.6;fill:#BF272D;}
	.st39{fill:#EA3228;}
	.st40{fill:#F3771F;}
	.st41{fill:#F8CA00;}
	.st42{fill:#2EA04A;}
	.st43{fill:#3E59A5;}
	.st44{fill:#6C5CA5;}
	.st45{opacity:0.7;fill:#FFFFFF;}
	.st46{fill:#F0F0F0;}
	.st47{fill:#979797;}
	.st48{fill:none;stroke:#979797;stroke-miterlimit:10;}
	.st49{fill:#862D7D;}
	.st50{opacity:0.25;}
	.st51{fill:#2E318E;}
	.st52{fill:#0071B8;}
	.st53{fill:#00A599;}
	.st54{fill:#008E45;}
	.st55{fill:#88C23F;}
	.st56{fill:#D5DC21;}
	.st57{fill:#F8EA21;}
	.st58{fill:#F7AC3B;}
	.st59{fill:#F38F1E;}
	.st60{fill:#ED5A24;}
	.st61{fill:#E91C24;}
	.st62{fill:#BD272D;}
	.st63{fill:#0000FF;}
	.st64{fill:#006837;}
	.st65{fill:#FAEC21;}
	.st66{fill:url(#SVGID_15_);}
	.st67{fill:#D2EFF1;}
</style>
<path class="st5" d="M124.5,77.9c0.5,1.8,0.8,3.8,0.8,5.8c0,4.2-1.1,8.4-3.2,12.1c0.2,1.2,0.3,2.4,0.3,3.6c0,5.4-1.8,10.7-5,14.9
	c0.2,15.8-10.6,25.1-26.1,25.1h-3h-7.8c-11.9,0-22.9-3.5-34-7.4c-2.4-0.8-9.2-3.3-11.6-3.3H10.7c-5.9,0-10.7-4.8-10.7-10.7V64.3
	c0-5.9,4.8-10.7,10.7-10.7h22.9c3.3-2.2,9-9.7,11.5-13c2.8-3.7,5.8-7.3,9-10.7c5-5.4,2.3-18.6,10.7-26.8c2-1.9,4.7-3.1,7.5-3.1
	C81,0,89.4,3.1,93.5,11.2c2.6,5.1,2.9,10,2.9,15.6c0,5.9-1.5,10.9-4,16.1h14.7c11.6,0,21.4,9.8,21.4,21.3
	C128.6,69.1,127.2,73.8,124.5,77.9z M16.1,107.1c-2.9,0-5.4,2.4-5.4,5.4s2.4,5.4,5.4,5.4s5.4-2.4,5.4-5.4S19,107.1,16.1,107.1z
	 M107.1,53.6H77.7c0-9.8,8-16.9,8-26.8c0-9.8-1.9-16.1-13.4-16.1C67,16.2,69.7,29,61.6,37.5c-2.3,2.4-4.4,5-6.4,7.6
	C51.4,50,41.4,64.3,34.8,64.3h-2.7v53.6h2.7c4.7,0,12.4,3,16.9,4.6c9.2,3.2,18.8,6.1,28.6,6.1h10.1c9.5,0,16.1-3.8,16.1-14
	c0-1.6-0.2-3.2-0.4-4.7c3.5-1.9,5.4-6.7,5.4-10.5c0-2-0.5-4-1.5-5.8c2.8-2.7,4.4-6,4.4-10c0-2.7-1.2-6.6-2.9-8.6
	c3.9-0.1,6.3-7.6,6.3-10.7C117.9,58.6,112.8,53.6,107.1,53.6z"/>
</svg>
